<?xml version="1.0" encoding="UTF-8"?>
<svg width="4px" height="7px" viewBox="0 0 4 7" version="1.1" xmlns="http://www.w3.org/2000/svg" xmlns:xlink="http://www.w3.org/1999/xlink">
    <!-- Generator: Sketch 52.5 (67469) - http://www.bohemiancoding.com/sketch -->
    <title>nav-arrow</title>
    <desc>Created with Sketch.</desc>
    <g id="Page-1" stroke="none" stroke-width="1" fill="none" fill-rule="evenodd">
        <path d="M3.83,3.132 L0.861,0.144 C0.767002693,0.0484159758 0.63855894,-0.00541798392 0.5045,-0.00541798392 C0.37044106,-0.00541798392 0.241997307,0.0484159758 0.148,0.144 C-0.0501061777,0.342338148 -0.0501061777,0.663661852 0.148,0.862 L2.759,3.491 L0.148,6.12 C-0.0503362168,6.31902369 -0.0503362168,6.64097631 0.148,6.84 C0.241997307,6.93558402 0.37044106,6.98941798 0.5045,6.98941798 C0.63855894,6.98941798 0.767002693,6.93558402 0.861,6.84 L3.83,3.852 C3.92462014,3.75612243 3.97746585,3.62670436 3.977,3.492 C3.97779509,3.35723181 3.92489996,3.22769271 3.83,3.132 Z" id="nav-arrow" fill="#000000"></path>
    </g>
</svg>